<?xml version="1.0" encoding="utf-8"?>
<!-- Generator: Adobe Illustrator 25.0.0, SVG Export Plug-In . SVG Version: 6.00 Build 0)  -->
<svg version="1.1" id="Layer_1" xmlns="http://www.w3.org/2000/svg" xmlns:xlink="http://www.w3.org/1999/xlink" x="0px" y="0px"
	 viewBox="0 0 500 500" style="enable-background:new 0 0 500 500;" xml:space="preserve">
<style type="text/css">
	.st0{fill:#EE6D6D;}
	.st1{fill:none;}
</style>
<path class="st0" d="M36.5,313.2c-11-6.5-20.2-15.7-26.6-26.7c-13.2-22.6-13.2-50.7,0.1-73.3c6.5-11,15.6-20.1,26.6-26.6
	c11.1-6.6,23.7-10,36.6-9.9c12.9-0.1,25.6,3.3,36.8,9.9c11,6.5,20.2,15.6,26.8,26.6c13.3,22.6,13.3,50.7,0,73.4
	c-6.6,11-15.8,20.1-26.8,26.6c-11.1,6.6-23.8,10.1-36.8,10C60.3,323.4,47.6,319.9,36.5,313.2z M124.8,154.7
	c-10.9-6.5-20-15.7-26.5-26.6c-6.6-11-10-23.6-9.9-36.4c-0.1-12.9,3.3-25.6,10-36.6c6.5-10.9,15.7-20.1,26.6-26.6
	c22.6-13.3,50.7-13.3,73.2,0c10.9,6.5,20.1,15.7,26.6,26.6c6.7,11.1,10.1,23.7,10,36.6c0.1,12.9-3.3,25.6-10,36.6
	c-6.5,10.9-15.7,20-26.6,26.5C175.6,168,147.5,168,124.8,154.7L124.8,154.7z M124.8,471.6c-11-6.5-20.1-15.7-26.5-26.8
	c-6.6-11-10-23.7-9.9-36.5c-0.1-12.9,3.3-25.6,10-36.6c6.5-10.9,15.7-20.1,26.6-26.6c22.6-13.3,50.7-13.3,73.2,0
	c10.9,6.5,20.1,15.7,26.6,26.6c13.3,22.6,13.3,50.7,0,73.2c-6.5,10.9-15.7,20.1-26.6,26.6C175.6,484.9,147.5,484.9,124.8,471.6z
	 M301.7,154.8c-11-6.5-20.1-15.6-26.6-26.5c-6.7-11-10.1-23.7-10-36.6c-0.1-12.9,3.3-25.6,10-36.6c6.5-10.9,15.7-20.1,26.6-26.6
	c22.6-13.3,50.7-13.3,73.4,0c11,6.5,20.2,15.7,26.8,26.6c6.7,11.1,10.1,23.7,10,36.6c0.1,12.9-3.3,25.6-10,36.6
	c-6.5,11-15.7,20.1-26.8,26.5C352.4,168,324.4,168,301.7,154.8z M301.7,471.6c-10.9-6.5-20.1-15.7-26.6-26.6
	c-13.3-22.6-13.3-50.7,0-73.2c6.5-11,15.7-20.1,26.6-26.6c22.6-13.3,50.7-13.3,73.4,0c11,6.5,20.2,15.7,26.8,26.6
	c13.3,22.6,13.3,50.7,0,73.2c-6.6,11-15.8,20.1-26.8,26.6C352.4,484.9,324.3,484.9,301.7,471.6z M390,313.2
	c-11-6.5-20.2-15.7-26.8-26.6c-13.3-22.6-13.3-50.7,0-73.4c6.5-11,15.7-20.2,26.8-26.6c22.7-13.2,50.7-13.2,73.4,0
	c11,6.5,20.1,15.6,26.6,26.6c13.3,22.6,13.3,50.7,0,73.4c-6.5,10.9-15.7,20.1-26.6,26.6C440.7,326.6,412.6,326.6,390,313.2z"/>
<rect class="st1" width="500" height="500"/>
</svg>
