<?xml version="1.0" encoding="utf-8"?>
<!-- Generator: Adobe Illustrator 25.0.0, SVG Export Plug-In . SVG Version: 6.00 Build 0)  -->
<svg version="1.1" id="Layer_1" xmlns="http://www.w3.org/2000/svg" xmlns:xlink="http://www.w3.org/1999/xlink" x="0px" y="0px"
	 viewBox="0 0 500 500" style="enable-background:new 0 0 500 500;" xml:space="preserve">
<style type="text/css">
	.st0{fill:none;}
	.st1{fill:#5656FE;}
</style>
<rect class="st0" width="500" height="500"/>
<g>
	<path class="st1" d="M153.6,480.4c-30.1-13.1-56.7-31.1-79.8-54.2c-23-23-41.1-49.6-54.2-79.8C6.5,316.3,0,284.2,0,250
		c0-34.1,6.5-66.3,19.6-96.4c13.1-30.1,31.1-56.7,54-79.8c23-23,49.5-41.1,79.7-54.2C183.5,6.5,215.6,0,249.8,0
		c34.1,0,66.3,6.5,96.6,19.6c30.2,13.1,56.9,31.1,79.9,54.2c23,23,41.1,49.6,54.2,79.8c13.1,30.1,19.6,62.3,19.6,96.4
		c0,34.2-6.5,66.3-19.6,96.4c-13.1,30.1-31.1,56.7-54.2,79.8c-23,23-49.6,41.1-79.8,54.2C316.3,493.5,284.1,500,250,500
		C215.8,500,183.7,493.5,153.6,480.4z M259.8,297.2c3.6-3.5,5.4-7.8,5.4-12.9c0-0.5,0-1,0-1.6c0-0.6,0-1,0-1.3
		c0-7.2,2.1-13.4,6.4-18.5c4.2-5.1,10.8-10.6,19.6-16.3c12.3-8,22.3-16.4,30.3-25.2c7.9-8.8,11.9-20.8,11.9-36
		c0-14-3.8-25.9-11.3-35.4c-7.5-9.6-17.4-16.8-29.5-21.7c-12.2-4.9-25.5-7.4-39.8-7.4c-21.9,0-39.7,4.3-53.3,13
		c-13.6,8.7-22.3,18.9-25.9,30.6c-0.7,2-1.2,4-1.6,6.1c-0.4,2.1-0.6,4.2-0.6,6.4c0,5.7,1.9,10,5.6,13c3.8,2.9,7.8,4.4,12,4.4
		c7.2,0,12.1-1.7,14.7-5c2.6-3.3,6-7.4,10.3-12.1c4.1-6.9,9.2-12.3,15.3-16.2c6.1-3.9,13.4-5.9,21.7-5.9c11.4,0,20.6,2.9,27.6,8.8
		c6.9,5.9,10.4,13.6,10.4,23.3c0,8.7-2.7,15.7-8.1,21.2c-5.4,5.5-13.6,12.1-24.8,19.7c-9,6.4-16.5,13.3-22.5,20.8
		c-6,7.5-9.1,17.6-9.1,30.1c0,0.5,0,1,0,1.6c0,0.6,0,1.1,0,1.6c0,13.4,6.8,20.1,20.3,20.1C251.2,302.4,256.2,300.7,259.8,297.2z
		 M263.4,370.1c5.5-5.1,8.2-11.3,8.2-18.6s-2.7-13.6-8.1-18.8c-5.4-5.1-11.8-7.7-19.4-7.7c-7.4,0-13.7,2.6-19.1,7.8
		c-5.4,5.2-8.1,11.4-8.1,18.6c0,7.4,2.7,13.6,8.2,18.6c5.5,5.1,11.8,7.6,19,7.6C251.5,377.7,257.9,375.2,263.4,370.1z"/>
</g>
</svg>
