<?xml version="1.0" encoding="utf-8"?>
<!-- Generator: Adobe Illustrator 25.0.0, SVG Export Plug-In . SVG Version: 6.00 Build 0)  -->
<svg version="1.1" id="Layer_1" xmlns="http://www.w3.org/2000/svg" xmlns:xlink="http://www.w3.org/1999/xlink" x="0px" y="0px"
	 viewBox="0 0 500 500" style="enable-background:new 0 0 500 500;" xml:space="preserve">
<style type="text/css">
	.st0{fill:none;}
	.st1{fill:#5AC8FA;}
</style>
<rect class="st0" width="500" height="500"/>
<path class="st1" d="M437.5,100c-32.8,0-59.2,25.3-62,57.5c-47-12.5-71-45-125.5-45c-54.8,0-78.5,32.5-125.5,45
	c-2.8-32-29.2-57.5-62-57.5C28,100,0,128,0,162.5V175c0,150,90,195.2,163,199.5c25.2,16,55,25.5,87,25.5s61.8-9.5,87-25.5
	c73-4.2,163-49.5,163-199.5v-12.5C500,128,472,100,437.5,100z M37.5,175v-12.5c0-13.8,11.2-25,25-25s25,11.2,25,25v75
	c0,32,9.5,61.8,25.3,87C74.7,306.8,37.5,266.2,37.5,175z M307.5,225.2c-10-4.2-18-9-25.2-13.2c-11.5-7-20-12-32.2-12s-21,5-32.7,12
	c-7,4.2-15,8.8-24.5,12.8c-8.5,3.8-17.8-2-17.8-11.2l0,0c0-5,2.7-9.5,7.2-11.2c8.5-3.5,15.5-7.8,22-11.5
	C218,182.5,230.7,175,250,175s31.8,7.5,45,15.5c6.8,4,13.8,8.2,22.5,12c4.5,2,7.2,6.5,7.2,11.2C325,222.8,315.8,228.7,307.5,225.2z
	 M462.5,175c0,91.2-37.2,131.8-75.2,149.5c16-25.3,25.2-55,25.2-87v-75c0-13.8,11.3-25,25-25s25,11.2,25,25V175z"/>
</svg>
