<svg id="Layer_1" data-name="Layer 1" xmlns="http://www.w3.org/2000/svg" viewBox="0 0 500 500"><defs><style>.cls-1{fill:#fff;}.cls-2{fill:none;}</style></defs><path class="cls-1" d="M36.5,313.2A74.79,74.79,0,0,1,9.9,286.5a72.55,72.55,0,0,1,.1-73.3,75.31,75.31,0,0,1,26.6-26.6,70.37,70.37,0,0,1,36.6-9.9,71.33,71.33,0,0,1,36.8,9.9,76.7,76.7,0,0,1,26.8,26.6,72.5,72.5,0,0,1,0,73.4A76.7,76.7,0,0,1,110,313.2a70.92,70.92,0,0,1-36.8,10A69,69,0,0,1,36.5,313.2Zm88.3-158.5a76.69,76.69,0,0,1-26.5-26.6,69.67,69.67,0,0,1-9.9-36.4,69.29,69.29,0,0,1,10-36.6A77,77,0,0,1,125,28.5a72.13,72.13,0,0,1,73.2,0,77,77,0,0,1,26.6,26.6,69.54,69.54,0,0,1,10,36.6,69.29,69.29,0,0,1-10,36.6,76.69,76.69,0,0,1-26.6,26.5,72.74,72.74,0,0,1-73.4-.1Zm0,316.9a74,74,0,0,1-26.5-26.8,70,70,0,0,1-9.9-36.5,69.29,69.29,0,0,1,10-36.6A77,77,0,0,1,125,345.1a72.13,72.13,0,0,1,73.2,0,77,77,0,0,1,26.6,26.6,72.13,72.13,0,0,1,0,73.2,77,77,0,0,1-26.6,26.6A72.27,72.27,0,0,1,124.8,471.6ZM301.7,154.8a75.85,75.85,0,0,1-26.6-26.5,69.29,69.29,0,0,1-10-36.6,69.29,69.29,0,0,1,10-36.6,77,77,0,0,1,26.6-26.6,72.5,72.5,0,0,1,73.4,0,77.55,77.55,0,0,1,26.8,26.6,69.54,69.54,0,0,1,10,36.6,69.29,69.29,0,0,1-10,36.6,74,74,0,0,1-26.8,26.5A73,73,0,0,1,301.7,154.8Zm0,316.8A77,77,0,0,1,275.1,445a72.13,72.13,0,0,1,0-73.2,76.13,76.13,0,0,1,26.6-26.6,72.5,72.5,0,0,1,73.4,0,77.55,77.55,0,0,1,26.8,26.6,72.13,72.13,0,0,1,0,73.2,76.7,76.7,0,0,1-26.8,26.6A72.5,72.5,0,0,1,301.7,471.6ZM390,313.2a77.55,77.55,0,0,1-26.8-26.6,72.5,72.5,0,0,1,0-73.4A74.28,74.28,0,0,1,390,186.6a73,73,0,0,1,73.4,0A75.31,75.31,0,0,1,490,213.2a72.5,72.5,0,0,1,0,73.4,77,77,0,0,1-26.6,26.6A72,72,0,0,1,390,313.2Z"/><rect class="cls-2" width="500" height="500"/></svg>