<?xml version="1.0" encoding="utf-8"?>
<!-- Generator: Adobe Illustrator 25.0.0, SVG Export Plug-In . SVG Version: 6.00 Build 0)  -->
<svg version="1.1" id="Layer_1" xmlns="http://www.w3.org/2000/svg" xmlns:xlink="http://www.w3.org/1999/xlink" x="0px" y="0px"
	 viewBox="0 0 500 500" style="enable-background:new 0 0 500 500;" xml:space="preserve">
<style type="text/css">
	.st0{fill:#66CA72;}
	.st1{fill:none;}
</style>
<path class="st0" d="M78.8,495.7c-1.7-9.1-3.3-16.3-4.7-21.5c-1.4-5.2-3.4-9.2-6-11.8c-2.7-2.7-6.6-4.8-11.8-6.4
	c-5.2-1.6-12.7-3.3-22.5-5.2c-2.9-0.7-4.3-2.4-4.3-4.9c0-2.6,1.4-4.2,4.3-4.7c7.6-1.3,15.1-3.1,22.4-5.2c5.2-1.6,9.1-3.8,11.6-6.5
	c2.6-2.7,4.5-6.6,5.9-11.8c1.4-5.2,3.1-12.4,5.1-21.5c0.6-2.9,2.2-4.3,4.7-4.3s4,1.4,4.5,4.3c2,9.1,3.7,16.3,5.1,21.5
	c1.4,5.2,3.4,9.1,6,11.8c2.6,2.7,6.6,4.8,11.8,6.5c7.4,2.1,14.8,3.9,22.3,5.3c2.9,0.5,4.3,2.1,4.3,4.7c0,2.5-1.4,4.1-4.3,4.9
	c-9.6,1.8-17.2,3.4-22.5,5c-5.4,1.6-9.4,3.7-12,6.4c-2.6,2.7-4.6,6.6-6,11.9s-2.9,12.5-4.7,21.5c-0.5,2.9-2,4.3-4.5,4.3
	S79.4,498.6,78.8,495.7z M54.4,316.7c-7.8-7.9-7.8-20.5,0-28.4c3.8-3.9,9-6.1,14.4-6c5.4-0.1,10.5,2.1,14.2,6l78.9,78.9
	c0.6-3,1.3-6.1,2.2-9.2c0.8-3.1,1.8-6.3,2.9-9.6L53.4,235c-7.9-7.8-8-20.5-0.2-28.4c3.8-3.9,9-6,14.5-6c5.4-0.1,10.5,2,14.3,5.8
	l104.4,104.4c1.6-2.4,3.4-4.8,5.2-7.1s3.7-4.7,5.7-7L83.1,182.6c-7.8-7.9-7.8-20.5,0-28.4c3.8-3.9,9-6.1,14.4-6
	c5.4-0.1,10.5,2.1,14.2,6l115.5,115.5c2.5-1.7,5-3.3,7.5-4.8c2.5-1.4,5-2.7,7.5-3.9l-99.6-99.6c-3.8-3.7-5.9-8.9-5.8-14.2
	c-0.1-5.4,2-10.5,5.8-14.3c3.7-3.8,8.9-5.9,14.2-5.8c5.4-0.1,10.6,2,14.4,5.8l139.2,139.4c2.4,2.4,4.4,3.6,6.2,3.7
	c1.8,0.1,3.5-0.7,4.7-2c1.2-1.2,1.8-2.9,1.9-4.6c0-2.6-0.5-5.1-1.5-7.4l-20.5-57.3c-3.3-9.4-4.8-16.9-4.7-22.5
	c0.1-5.6,2.4-10.9,6.4-14.8c3.8-3.8,7.9-5.7,12.5-5.9c4.6-0.2,9.1,1.7,12.3,5c2.8,3,5.2,6.4,7.1,10c2.6,4.5,5.3,9.5,8.1,14.8
	s5.5,10.5,8.1,15.4c4.8,9,9.3,17.7,13.6,26.1c4.3,8.4,8.4,16.6,12.1,24.6c3.8,8,7.2,15.9,10.3,23.6c3.1,7.7,5.8,15.3,8.1,22.8
	c9,26.4,11.1,50.9,6.3,73.5s-17.8,44.4-39,65.5c-13.1,13.2-27.4,23.2-42.6,30.1c-14.8,6.8-30.9,10.4-47.2,10.5
	c-16.7,0-33.1-3.5-48.3-10.3c-16-7-31.3-17.8-46-32.5L54.4,316.7z M181.4,79.4c-1.4-7-2.6-12.5-3.6-16.3c-0.7-3.3-2.3-6.3-4.5-8.8
	c-2-2-5-3.5-8.9-4.6c-3.9-1.1-9.4-2.3-16.4-3.8c-2.6-0.6-3.9-2-3.9-4.1c0-2.4,1.3-3.9,3.9-4.5c7-1.5,12.5-2.8,16.3-3.9
	c3.9-1.1,6.8-2.7,8.7-4.6c1.9-1.9,3.4-4.9,4.5-8.7c1.1-3.9,2.3-9.3,3.9-16.1c0.5-2.5,1.9-3.8,4.3-3.8s3.7,1.2,4.3,3.8
	c1.5,6.9,2.8,12.3,3.9,16.1c1.1,3.9,2.6,6.8,4.5,8.7c2.5,2.2,5.4,3.8,8.6,4.6c3.8,1.1,9.3,2.4,16.4,3.9c2.6,0.6,3.9,2.1,3.9,4.5
	c0,2.1-1.3,3.5-3.9,4.1c-9.5,1.9-16.3,3.6-20.3,5.1c-3.9,1.4-6.9,4.5-8.3,8.4c-1.5,4.1-3.1,10.8-4.9,20.2c-0.5,2.5-2,3.8-4.3,3.8
	C183.3,83.2,181.8,82,181.4,79.4L181.4,79.4z M274.5,185.6c0.4,5.7,1.2,11.3,2.2,16.9l-68.2-68.4c0.3-0.4,0.6-0.8,0.9-1.1
	c3.7-3.8,8.8-6,14.1-5.8c5.4-0.1,10.5,2,14.2,5.8l37,37C274.3,175.2,274.1,180.4,274.5,185.6L274.5,185.6z M307.8,132.4
	c-1-0.9-1.6-2.2-1.7-3.6c-1.5-11.1-3-19.8-4.5-25.9s-3.9-10.8-7.2-13.9c-3.3-3.1-8.1-5.6-14.6-7.3c-6.5-1.8-15.5-3.8-27-6
	c-3.3-0.5-4.9-2.3-4.9-5.4c-0.1-2.8,2.1-5.2,4.9-5.4c11.5-1.6,20.5-3.2,27-4.9c6.5-1.6,11.4-4,14.6-7.2c3.3-3.2,5.6-8,7.1-14.4
	c1.5-6.4,3-15.2,4.5-26.5c0.2-3.4,2-5.1,5.3-5.1c3.5,0,5.4,1.8,5.6,5.3c1,8.7,2.4,17.3,4.4,25.8c1.6,6.2,4,10.8,7.3,13.9
	c3.3,3.1,8.2,5.4,14.7,7.1c6.5,1.7,15.5,3.7,26.9,5.9c3.3,0.5,4.9,2.3,4.9,5.4s-1.9,5-5.6,5.4c-11.3,1.9-20.1,3.7-26.6,5.3
	c-6.4,1.7-11.3,4.1-14.5,7.2c-3.3,3.2-5.6,7.9-7.1,14.3c-1.9,8.6-3.3,17.3-4.3,26c-0.2,3.5-2.1,5.3-5.6,5.3
	C310,133.8,308.7,133.3,307.8,132.4L307.8,132.4z M393.8,469.2c-12.2,6.5-25.4,10.8-39.1,12.8c9.3-6.1,17.9-13.3,25.7-21.2
	c23.8-23.5,38.9-48.8,45.3-75.8s4.4-56.4-6-88.4c-2.2-7.5-4.9-15.2-8-23.1c-3.1-7.9-6.5-15.9-10.2-24c-3.8-8.1-7.8-16.4-12-24.8
	c-4.2-8.4-8.6-16.9-13.2-25.6c-2.1-3.8-4.2-7.6-6.1-11.5s-4-7.8-6.1-11.6c1.1-3.3,3-6.2,5.5-8.6c3.9-3.8,8.1-5.7,12.6-5.9
	s8.5,1.5,12,5.2c2.8,2.9,5.2,6.2,7.2,9.8c2.7,4.5,5.4,9.5,8.2,14.8c2.8,5.4,5.4,10.5,7.9,15.4c4.9,9,9.5,17.7,13.8,26.1
	c4.3,8.4,8.4,16.6,12.1,24.6c3.8,8,7.2,15.9,10.3,23.6c3.1,7.7,5.9,15.3,8.3,22.6c8.9,26.6,10.9,51.1,6.1,73.7s-17.8,44.5-39,65.6
	C418.7,453.4,406.8,462.3,393.8,469.2L393.8,469.2z"/>
<rect class="st1" width="500" height="500"/>
<rect class="st1" width="500" height="500"/>
</svg>
