<?xml version="1.0" encoding="utf-8"?>
<!-- Generator: Adobe Illustrator 25.0.0, SVG Export Plug-In . SVG Version: 6.00 Build 0)  -->
<svg version="1.1" id="Layer_1" xmlns="http://www.w3.org/2000/svg" xmlns:xlink="http://www.w3.org/1999/xlink" x="0px" y="0px"
	 viewBox="0 0 500 500" style="enable-background:new 0 0 500 500;" xml:space="preserve">
<style type="text/css">
	.st0{fill:#5DBDC5;}
	.st1{fill:none;}
</style>
<path class="st0" d="M175.6,490.9c-28.3-12-50.9-34.5-62.9-62.8c-6.1-14.4-9.2-29.9-9.1-45.6c-0.1-16.6,3.5-32.9,10.5-47.9
	c7-14.9,17.1-28.4,30.5-40.5c2-1.7,3.6-3.8,4.8-6.1c0.9-2.4,1.4-5,1.2-7.6l-0.5-202.1c0-15.6,3-29.3,9-41.1
	c5.6-11.3,14.3-20.8,25-27.5C194.8,3.3,207.3,0,221.5,0c14.1,0,26.4,3.3,37,9.8c10.7,6.6,19.3,16.1,24.8,27.5
	c5.9,11.8,8.9,25.5,8.9,41.1L292,280.4c-0.1,2.6,0.3,5.2,1.1,7.6c1.2,2.3,2.8,4.4,4.7,6.1c13.5,12.1,23.7,25.6,30.6,40.5
	c6.9,15,10.5,31.4,10.4,47.9c0.1,15.6-3,31.2-9.1,45.6c-5.9,14-14.5,26.7-25.2,37.5c-10.7,10.8-23.4,19.4-37.4,25.3
	c-14.4,6.1-29.9,9.2-45.6,9.1C205.8,500.1,190.2,497,175.6,490.9z M263.8,455.9c12.6-7.5,23.2-18.1,30.6-30.8
	c7.6-12.9,11.6-27.6,11.5-42.5c0.2-28-13.8-54.1-37.1-69.5c-3.6-2.4-6.1-4.9-7.5-7.4s-2.1-6.2-2.1-10.8V79.7
	c0-14.2-3.5-25.6-10.5-34c-7-8.4-16-12.6-27.1-12.6c-11.4,0-20.6,4.2-27.6,12.6s-10.5,19.7-10.5,34v215.1c0,4.6-0.8,8.2-2.2,10.8
	c-1.9,3-4.5,5.5-7.4,7.4c-36.7,24.8-48,73.7-25.8,112.1c7.4,12.7,17.9,23.3,30.6,30.8c13,7.7,27.8,11.7,42.9,11.5
	C236.4,467.5,251.1,463.6,263.8,455.9L263.8,455.9z M193.8,429.6c-8.1-4.8-14.9-11.6-19.7-19.8c-4.9-8.3-7.4-17.8-7.3-27.5
	c-0.1-10,2.7-19.8,8.1-28.2c5.3-8.2,12.6-15,21.2-19.7c3.6-1.9,6.1-4,7.5-6.2s2.1-6,2.1-11.4V197.3c0-5.9,1.5-10.4,4.5-13.7
	c5.4-6.1,14.7-6.6,20.8-1.2c0.4,0.4,0.8,0.8,1.2,1.2c3,3.3,4.5,7.9,4.5,13.7v119.5c0,5.4,0.7,9.2,2.1,11.4c1.4,2.2,3.9,4.2,7.5,6.2
	c8.6,4.7,15.9,11.5,21.1,19.7c5.4,8.4,8.3,18.2,8.1,28.2c0.1,9.7-2.5,19.2-7.4,27.5c-4.8,8.1-11.6,14.9-19.7,19.8
	c-8.2,5-17.7,7.5-27.3,7.4C211.6,437.1,202.1,434.5,193.8,429.6L193.8,429.6z M324.7,78.7c-5-5.1-5-13.2,0-18.2
	c2.5-2.6,6-4.1,9.6-3.9h48.8c3.6-0.2,7.2,1.3,9.7,3.9c4.8,5.1,4.8,13.1,0,18.2c-2.5,2.7-6,4.1-9.7,3.9h-48.8
	C330.7,82.7,327.2,81.3,324.7,78.7z M324.7,141.9c-2.4-2.4-3.7-5.7-3.7-9.1c-0.1-7.1,5.7-12.9,12.8-13c0.2,0,0.3,0,0.5,0h48.8
	c3.6-0.2,7.2,1.2,9.7,3.8c2.4,2.5,3.7,5.8,3.6,9.2c0,3.4-1.3,6.7-3.6,9.1c-2.5,2.7-6,4.1-9.7,3.9h-48.8
	C330.7,146,327.2,144.5,324.7,141.9z M324.7,205.1c-2.4-2.4-3.7-5.7-3.7-9.1c0-3.5,1.3-6.8,3.7-9.3c2.5-2.6,6-4.1,9.6-3.9h48.8
	c3.6-0.2,7.2,1.3,9.7,3.9c2.4,2.5,3.7,5.9,3.6,9.3c0,3.4-1.3,6.7-3.6,9.1c-2.5,2.7-6,4.1-9.7,3.9h-48.8
	C330.7,209.2,327.2,207.7,324.7,205.1z M324.7,268.3c-2.4-2.5-3.8-5.9-3.7-9.3c0-3.4,1.3-6.7,3.7-9.1c2.5-2.6,6-4.1,9.6-3.9h48.8
	c3.6-0.2,7.2,1.3,9.7,3.9c2.3,2.5,3.6,5.7,3.6,9.1c0.1,3.5-1.2,6.8-3.6,9.3c-2.5,2.7-6,4.1-9.7,3.9h-48.8
	C330.7,272.4,327.2,271,324.7,268.3z"/>
<rect class="st1" width="500" height="500"/>
</svg>
