<?xml version="1.0" encoding="utf-8"?>
<!-- Generator: Adobe Illustrator 25.0.0, SVG Export Plug-In . SVG Version: 6.00 Build 0)  -->
<svg version="1.1" id="Layer_1" xmlns="http://www.w3.org/2000/svg" xmlns:xlink="http://www.w3.org/1999/xlink" x="0px" y="0px"
	 viewBox="0 0 500 500" style="enable-background:new 0 0 500 500;" xml:space="preserve">
<style type="text/css">
	.st0{fill:none;}
	.st1{fill:#34C759;}
</style>
<rect class="st0" width="500" height="500"/>
<g>
	<path class="st1" d="M153.6,480.4c-30.1-13.1-56.7-31.1-79.8-54.2c-23-23-41.1-49.6-54.2-79.8S0,284.2,0,250
		c0-34.1,6.5-66.3,19.6-96.4s31.1-56.7,54-79.8c23-23,49.5-41.1,79.7-54.2C183.5,6.5,215.6,0,249.8,0s66.3,6.5,96.6,19.6
		c30.2,13.1,56.9,31.1,79.9,54.2c23,23,41.1,49.6,54.2,79.8c13.1,30.1,19.6,62.3,19.6,96.4c0,34.2-6.5,66.3-19.6,96.4
		c-13.1,30.1-31.1,56.7-54.2,79.8c-23,23-49.6,41.1-79.8,54.2C316.3,493.5,284.2,500,250,500S183.7,493.5,153.6,480.4z M331.3,442.2
		c25.2-10.8,47.4-25.7,66.4-44.7c19-19,33.9-41.1,44.6-66.3c10.7-25.2,16.1-52.2,16.1-81.1s-5.4-56-16.2-81.1
		c-10.8-25.2-25.7-47.3-44.9-66.4c-19.1-19.1-41.3-34-66.4-44.7c-25.2-10.7-52.2-16.1-81.1-16.1c-28.9,0-56,5.4-81.1,16.1
		c-25.2,10.7-47.2,25.6-66.2,44.7c-19,19.1-33.8,41.3-44.5,66.4C47.3,194,41.9,221.1,41.9,250s5.4,56,16.1,81.1
		c10.7,25.2,25.6,47.3,44.6,66.3c19,19,41.1,33.9,66.3,44.7c25.2,10.8,52.2,16.2,81.1,16.2S306,452.9,331.3,442.2z M211.9,363.7
		c-3.3-1.8-6.6-4.7-9.7-8.6l-59.8-73.5c-3.8-5.1-5.6-10.1-5.6-15.2c0-5.4,1.8-10,5.5-13.9c3.7-3.8,8.1-5.8,13.4-5.8
		c3.4,0,6.6,0.7,9.4,2.1c2.9,1.4,5.8,4,8.7,8l48.3,62.5l101.7-163.2c4.6-7.4,10.3-11,17.2-11c5.1,0,9.6,1.6,13.7,4.9
		c4.1,3.3,6.1,7.6,6.1,13c0,2.8-0.6,5.5-1.8,8.2c-1.2,2.7-2.6,5.2-4,7.5l-112,176.5c-4.9,7.5-11.5,11.3-19.9,11.3
		C219,366.4,215.2,365.5,211.9,363.7z"/>
</g>
</svg>
