<?xml version="1.0" encoding="utf-8"?>
<!-- Generator: Adobe Illustrator 25.0.0, SVG Export Plug-In . SVG Version: 6.00 Build 0)  -->
<svg version="1.1" id="Layer_1" xmlns="http://www.w3.org/2000/svg" xmlns:xlink="http://www.w3.org/1999/xlink" x="0px" y="0px"
	 viewBox="0 0 500 500" style="enable-background:new 0 0 500 500;" xml:space="preserve">
<style type="text/css">
	.st0{fill:#549771;}
	.st1{fill:none;}
</style>
<path class="st0" d="M153.6,480.4c-60.1-25.9-108-73.9-133.9-133.9C6.5,316.3,0,284.2,0,250s6.5-66.3,19.6-96.4
	c12.8-29.8,31.1-56.8,54-79.8c22.9-23,49.9-41.4,79.7-54.2C183.4,6.5,215.6,0,249.8,0c33.2-0.2,66.1,6.5,96.6,19.6
	c60.2,25.9,108.1,73.8,134.1,133.9c13.1,30.1,19.6,62.3,19.6,96.4s-6.5,66.3-19.6,96.5c-25.9,60.1-73.9,108-133.9,133.9
	C316.3,493.5,284.2,500,250,500S183.7,493.5,153.6,480.4z M117.3,295.5c4.8,4.8,11.1,7.2,18.8,7.2h60.8V363c0,8,2.4,14.4,7.2,19.2
	c4.8,4.8,11.1,7.2,18.8,7.2h53.4c7.8,0,14.1-2.4,18.9-7.2s7.1-11.2,7.1-19.2v-60.3H363c7.8,0,14.2-2.4,19-7.2s7.2-11.2,7.2-19V223
	c0-7.7-2.4-13.9-7.2-18.8s-11.2-7.2-19-7.2h-60.8v-60.3c0-8-2.4-14.4-7.1-19.1c-4.7-4.7-11-7.1-18.9-7.1h-53.4
	c-7.7,0-13.9,2.4-18.8,7.1c-4.8,4.7-7.2,11.1-7.2,19.1V197H136c-7.8,0-14.1,2.4-18.9,7.2c-4.7,4.8-7.1,11.1-7.1,18.8v53.4
	C110.1,284.3,112.5,290.6,117.3,295.5z"/>
<rect class="st1" width="500" height="500"/>
</svg>
